<?xml version="1.0" encoding="UTF-8" standalone="no"?>
<svg
   xmlns:dc="http://purl.org/dc/elements/1.1/"
   xmlns:cc="http://creativecommons.org/ns#"
   xmlns:rdf="http://www.w3.org/1999/02/22-rdf-syntax-ns#"
   xmlns:svg="http://www.w3.org/2000/svg"
   xmlns="http://www.w3.org/2000/svg"
   xmlns:sodipodi="http://sodipodi.sourceforge.net/DTD/sodipodi-0.dtd"
   xmlns:inkscape="http://www.inkscape.org/namespaces/inkscape"
   style="enable-background:new 0 0 57.05 61;"
   version="1.1"
   viewBox="0 0 57.05 61"
   xml:space="preserve"
   id="svg78"
   sodipodi:docname="logo.svg"
   inkscape:version="0.92.4 (unknown)"><metadata
     id="metadata84"><rdf:RDF><cc:Work
         rdf:about=""><dc:format>image/svg+xml</dc:format><dc:type
           rdf:resource="http://purl.org/dc/dcmitype/StillImage" /></cc:Work></rdf:RDF></metadata><defs
     id="defs82" /><sodipodi:namedview
     pagecolor="#ffffff"
     bordercolor="#666666"
     borderopacity="1"
     objecttolerance="10"
     gridtolerance="10"
     guidetolerance="10"
     inkscape:pageopacity="0"
     inkscape:pageshadow="2"
     inkscape:window-width="2493"
     inkscape:window-height="1385"
     id="namedview80"
     showgrid="false"
     inkscape:zoom="19.737705"
     inkscape:cx="28.525"
     inkscape:cy="30.5"
     inkscape:window-x="1987"
     inkscape:window-y="27"
     inkscape:window-maximized="1"
     inkscape:current-layer="svg78" /><style
     type="text/css"
     id="style67">
	.st0{fill:#FFFFFF;stroke:#000000;stroke-miterlimit:10;}
	.st1{fill:#FFFFFF;}
	.st2{fill:none;stroke:#000000;stroke-miterlimit:10;}
	.st3{fill:none;stroke:#000000;stroke-linecap:round;stroke-miterlimit:10;}
	.st4{fill:none;stroke:#000000;stroke-linejoin:round;stroke-miterlimit:10;}
	.st5{fill:none;stroke:#000000;stroke-linecap:round;stroke-linejoin:round;stroke-miterlimit:10;}
</style><g
     id="Layer_2" /><g
     id="Layer_1" /><g
     id="Layer_3"><g
       id="g75"><path
         d="M56.19,38.35c-2.17-5.61-1.94-7.88-1.65-10.75c0.09-0.85,0.18-1.74,0.21-2.78c0.14-3.93-1.16-8.13-1.6-9.43l2.5-1.43    c0.23-0.13,0.32-0.42,0.2-0.66c-0.15-0.3-3.79-7.4-13.81-11.67c-0.25-0.1-0.53,0-0.65,0.24l-1.72,3.51    c-0.11,0.22-0.04,0.5,0.17,0.64c0.08,0.06,8.4,5.7,9.39,14.49c0.61,5.42,0.25,7.68-0.01,9.33c-0.24,1.52-0.42,2.62,0.22,5.06    c0.53,2.02,1.19,3.18,1.73,4.12c0.46,0.79,0.78,1.37,0.87,2.18c0.21,1.98-0.57,6.47-2.91,8.38c-1.14,0.93-2.53,1.15-4.13,0.64    c-3.96-1.25-3.98-8.4-4.01-14.14c-0.01-2.83-0.02-5.49-0.48-7.22c-1.24-4.68-3.8-7.44-4.48-8.12v-5.49V4.85    c0-2.67-2.18-4.85-4.85-4.85H8.44C5.77,0,3.59,2.18,3.59,4.85v50.08H2.54c-1.4,0-2.54,1.14-2.54,2.54v0.99    C0,59.86,1.14,61,2.54,61H37.1c1.4,0,2.54-1.14,2.54-2.54v-0.99c0-1.4-1.14-2.54-2.54-2.54h-1.05v-7.64v-2.31    c1.08,4.12,3.3,8.63,7.92,10.19c3.18,1.07,6.66,0.05,9.33-2.73C56.25,49.35,58.29,43.79,56.19,38.35z M4.59,4.85    C4.59,2.73,6.32,1,8.44,1h22.75c2.12,0,3.85,1.73,3.85,3.85v10.41v5.71v16.37v0c0,0,0,0.01,0,0.01v9.94v7.64h-2.47V4.38    c0-0.28-0.22-0.5-0.5-0.5H7.57c-0.28,0-0.5,0.22-0.5,0.5v50.55H4.59V4.85z M31.57,4.88v50.05H8.07V4.88H31.57z M37.1,55.94    c0.85,0,1.54,0.69,1.54,1.54v0.99c0,0.85-0.69,1.54-1.54,1.54H2.54C1.69,60,1,59.31,1,58.46v-0.99c0-0.85,0.69-1.54,1.54-1.54    h1.55h3.47h24.51h3.47H37.1z M52.56,51.75c-2.42,2.53-5.44,3.43-8.28,2.48c-8.13-2.74-8.24-16.24-8.24-16.88v-0.01    c0,0,0-0.01,0-0.01c0,0,0,0,0,0V22.24c0.99,1.19,2.62,3.53,3.51,6.88c0.42,1.6,0.44,4.21,0.45,6.96    c0.02,6.38,0.05,13.62,4.71,15.09c1.94,0.62,3.64,0.33,5.06-0.82c2.77-2.27,3.49-7.15,3.27-9.26c-0.11-1.02-0.52-1.74-1-2.57    c-0.51-0.88-1.13-1.98-1.63-3.87c-0.58-2.23-0.43-3.19-0.2-4.65c0.27-1.71,0.65-4.04,0.02-9.6c-0.94-8.28-7.79-13.73-9.47-14.95    l1.32-2.7c8.01,3.55,11.72,9.06,12.64,10.6l-2.43,1.39c-0.21,0.12-0.31,0.38-0.22,0.61c0.02,0.05,1.84,5.03,1.68,9.45    c-0.04,1.01-0.12,1.88-0.21,2.71c-0.29,2.88-0.54,5.38,1.71,11.21C57.2,43.74,55.31,48.88,52.56,51.75z"
         id="path71" /><path
         d="M12.7,27.83h14.23c1.55,0,2.82-1.27,2.82-2.82V9.4c0-1.56-1.27-2.82-2.82-2.82H12.7c-1.55,0-2.82,1.27-2.82,2.82v15.62    C9.88,26.57,11.15,27.83,12.7,27.83z M10.88,9.4c0-1,0.82-1.82,1.82-1.82h14.23c1,0,1.82,0.82,1.82,1.82v15.62    c0,1-0.82,1.82-1.82,1.82H12.7c-1,0-1.82-0.82-1.82-1.82V9.4z"
         id="path73" /></g></g><path
     style="fill:#b3b3b3;stroke-width:0.05066445"
     d="M 4.6325239,29.641238 C 4.6335014,1.5614275 4.600353,4.044816 4.984891,3.2428953 5.5798182,2.0022265 6.6776599,1.2146312 8.0415643,1.0500279 8.3076002,1.0179212 12.644012,1.0052942 20.109634,1.0148873 c 13.168386,0.016921 11.842683,-0.027948 12.792774,0.4329769 0.414098,0.2008944 0.548832,0.3011191 0.964808,0.7176946 0.544585,0.5453683 0.828047,1.0183571 1.025369,1.7109447 l 0.112398,0.3945098 0.01301,25.3195597 0.01301,25.31956 h -1.216295 -1.216295 l -7.47e-4,-25.31956 C 32.59708,9.4464772 32.583991,4.245123 32.533639,4.1443522 32.49883,4.0746885 32.390872,3.9778282 32.29373,3.929107 32.127033,3.8455004 31.426235,3.8405185 19.821612,3.8404442 12.281947,3.8403959 7.4777286,3.8587617 7.4010202,3.8879261 7.3322184,3.9140846 7.2281387,3.9867806 7.1697319,4.0494729 L 7.0635378,4.1634589 V 29.536796 54.910133 H 5.847591 4.6316441 Z"
     id="path92"
     inkscape:connector-curvature="0" /><path
     style="fill:#ececec;stroke-width:0.05066445"
     d="M 8.0768269,29.907226 V 4.9043189 H 19.805647 31.534468 V 29.907226 54.910133 H 19.805647 8.0768269 Z M 27.459341,27.801163 c 0.783609,-0.141152 1.585888,-0.73318 1.959083,-1.445673 0.362911,-0.692857 0.341208,-0.112287 0.342039,-9.149882 5.26e-4,-5.713512 -0.01583,-8.2218916 -0.05483,-8.4102986 -0.20445,-0.9876485 -1.065174,-1.8837727 -2.05431,-2.1388013 -0.277242,-0.071481 -1.133868,-0.080262 -7.82968,-0.080262 -8.285675,0 -7.774351,-0.019212 -8.451629,0.3175603 -0.414771,0.2062429 -0.930559,0.7139585 -1.15386,1.1358026 -0.09125,0.1723771 -0.210942,0.4895104 -0.2659885,0.7047407 -0.09763,0.381729 -0.1000632,0.5890374 -0.099205,8.4515373 9.642e-4,8.833275 -0.012038,8.441271 0.3009525,9.073498 0.36693,0.741183 1.031315,1.282736 1.830375,1.491976 0.363414,0.09516 0.617365,0.09847 7.776054,0.101165 5.041877,0.0019 7.49618,-0.01447 7.700997,-0.05136 z"
     id="path94"
     inkscape:connector-curvature="0" /><path
     style="fill:#e6e6e6;stroke-width:0.05066445"
     d="M 12.041673,26.684327 C 11.68768,26.547812 11.275174,26.162765 11.08907,25.795137 L 10.939368,25.499419 V 17.215781 8.9321429 L 11.076392,8.6531477 C 11.262424,8.274364 11.582872,7.9613113 11.97799,7.7723559 l 0.329319,-0.1574888 7.367195,-0.013499 c 8.176497,-0.014982 7.717465,-0.032767 8.249896,0.3196423 0.296268,0.1960953 0.571579,0.5400622 0.70793,0.8844714 0.085,0.2146916 0.09109,0.6904831 0.10443,8.1569762 0.0096,5.354834 -0.0031,8.041225 -0.03904,8.274707 -0.09566,0.621549 -0.437197,1.104154 -0.986699,1.39423 l -0.255044,0.134635 -7.574336,0.01037 c -7.493072,0.01026 -7.577185,0.0093 -7.839971,-0.09207 z"
     id="path96"
     inkscape:connector-curvature="0" /><path
     style="fill:#808080;stroke-width:0.05066445"
     d="M 2.148758,59.929388 C 1.7493057,59.807416 1.3887251,59.510663 1.1958737,59.145175 1.0628097,58.892996 1.0598003,58.867123 1.0598003,57.975332 c 0,-0.845381 0.00838,-0.928974 0.1148321,-1.145009 0.1385393,-0.281162 0.4206449,-0.57384 0.6957991,-0.721874 l 0.2026578,-0.10903 H 19.805647 37.538206 l 0.213915,0.114306 c 0.3355,0.179275 0.555422,0.400369 0.70868,0.712456 0.137359,0.279712 0.141358,0.311504 0.141358,1.123819 0,0.56709 -0.02171,0.897304 -0.0675,1.026678 -0.105089,0.296927 -0.419663,0.655455 -0.721729,0.822574 l -0.274726,0.151994 -17.63123,0.0085 c -9.697176,0.0047 -17.688374,-0.009 -17.758218,-0.03032 z"
     id="path98"
     inkscape:connector-curvature="0" /><path
     style="fill:#808080;stroke-width:0.05066445"
     d="M 4.635297,33.846387 C 4.6384844,15.466241 4.6823558,4.5772359 4.7561388,3.8530676 4.7682031,3.7346593 4.8078244,3.5837527 4.8441862,3.5177196 4.880548,3.4516865 4.9643736,3.297777 5.0304653,3.1756985 5.364317,2.559038 5.8847274,1.9832308 6.4144923,1.6443443 6.6953409,1.4646876 7.2780464,1.205814 7.4015917,1.205814 c 0.036994,0 0.067374,-0.017099 0.067512,-0.037998 C 7.4692413,1.146917 7.5746997,1.123694 7.7034556,1.11621 7.8322115,1.10873 7.95564,1.091426 7.977741,1.077767 7.999842,1.064108 13.086857,1.053513 19.282218,1.054222 c 10.130056,0.00116 12.503919,0.023892 13.015771,0.1246393 0.07162,0.014097 0.332593,0.1342231 0.579942,0.2669477 0.332994,0.1786806 0.562652,0.3530976 0.884788,0.6719654 0.419481,0.4152263 0.775773,0.8106312 0.730443,0.8106312 -0.01203,0 0.03296,0.1082953 0.09996,0.2406562 0.067,0.1323608 0.179249,0.4116486 0.249438,0.6206395 l 0.127617,0.3799834 0.02592,25.3702243 0.02592,25.370224 H 33.811195 32.600372 L 32.58673,29.531353 32.573089,4.1525725 32.426486,4.0266017 C 32.292026,3.9110664 32.224874,3.8978544 31.615854,3.8671131 31.250639,3.8486783 25.647026,3.8408183 19.163381,3.8496465 L 7.3749358,3.8656977 7.2319029,3.9726874 C 7.1532348,4.0315316 7.0858001,4.1113282 7.0820481,4.1500129 7.0782959,4.1886977 7.0725962,15.62555 7.069382,29.565241 L 7.063542,54.910133 H 5.847591 4.6316441 Z"
     id="path100"
     inkscape:connector-curvature="0" /><path
     style="fill:#808080;stroke-width:0.05066445"
     d="M 8.0768269,29.907226 V 4.9043189 H 19.805647 31.534468 V 29.907226 54.910133 H 19.805647 8.0768269 Z m 19.7121261,-2.19049 c 1.03087,-0.350608 1.800294,-1.280715 1.919372,-2.320205 0.03349,-0.292329 0.05189,-3.273658 0.05159,-8.358076 -4.06e-4,-6.679863 -0.01175,-7.956896 -0.07333,-8.2475068 C 29.48945,7.8606141 28.820126,7.0940272 27.887386,6.7302968 l -0.330083,-0.1287187 -7.447675,-0.01478 c -4.903838,-0.00973 -7.586114,0.00306 -7.85299,0.037437 -0.998913,0.128692 -1.871188,0.8605363 -2.244674,1.8832968 L 9.8754149,8.8814784 9.8604977,16.835797 c -0.00999,5.328087 0.00273,8.121595 0.038528,8.460964 0.044477,0.421628 0.087421,0.57772 0.2559203,0.930213 0.409173,0.855977 1.266527,1.476736 2.203027,1.595083 0.0836,0.01056 3.514846,0.01667 7.625,0.01357 l 7.473007,-0.0056 z"
     id="path102"
     inkscape:connector-curvature="0" /><path
     style="fill:#808080;stroke-width:0.05066445"
     d="m 45.391196,54.483964 c -1.772356,-0.343814 -3.216477,-1.130369 -4.559801,-2.483535 -2.52559,-2.544093 -4.091549,-6.749833 -4.670224,-12.542954 -0.07289,-0.72968 -0.08565,-1.873027 -0.10041,-8.99294 l -0.01691,-8.156977 0.177363,0.202658 c 0.266937,0.305007 0.918253,1.242749 1.282145,1.845989 1.059587,1.756525 1.911102,3.939264 2.18529,5.601685 0.203837,1.235881 0.245841,2.206786 0.309052,7.143688 0.05654,4.415891 0.126412,5.621757 0.433002,7.473007 0.62398,3.767701 1.968217,5.855756 4.251185,6.603529 2.598068,0.850982 4.878212,0.02537 6.460162,-2.339159 0.637363,-0.952661 1.293558,-2.566009 1.590195,-3.909719 0.290937,-1.317889 0.426592,-2.800728 0.337629,-3.690606 -0.09518,-0.952093 -0.272349,-1.426379 -1.045596,-2.799123 -0.658899,-1.169744 -0.968214,-1.853461 -1.315822,-2.908527 -0.492649,-1.495294 -0.712111,-2.75827 -0.664686,-3.825166 0.01548,-0.348318 0.107721,-1.169082 0.204973,-1.82392 0.290822,-1.958223 0.31046,-2.236509 0.307484,-4.357143 -0.0028,-2.001909 -0.04897,-2.804159 -0.281259,-4.888302 C 50.019057,18.340336 49.442141,16.39727 48.395784,14.307297 46.860282,11.240315 44.366061,8.2439595 41.414036,5.9199885 41.121449,5.6896503 40.864201,5.4846905 40.842373,5.4645224 40.820545,5.4443542 41.094133,4.831882 41.450346,4.103473 l 0.64766,-1.32438 0.702199,0.3333066 c 4.203049,1.9950243 7.888761,4.889857 10.509892,8.2546824 0.43906,0.563636 1.397932,1.947973 1.366637,1.973035 -0.0077,0.0061 -0.580095,0.336663 -1.272058,0.734492 -1.065254,0.612444 -1.270515,0.74933 -1.339013,0.892972 -0.07917,0.166016 -0.07476,0.188916 0.205684,1.069597 0.906066,2.845284 1.378407,5.378248 1.438548,7.714317 0.0303,1.176962 -0.01112,1.927023 -0.222403,4.027824 -0.15048,1.496207 -0.182418,3.32782 -0.07333,4.205149 0.243139,1.955323 0.704158,3.727535 1.614516,6.206396 0.777424,2.116888 0.976715,3.089567 0.976715,4.76705 0,2.048525 -0.400154,3.76386 -1.316751,5.644495 -0.601854,1.23486 -1.277308,2.207269 -2.176988,3.134074 -1.375015,1.416473 -2.663102,2.202331 -4.308586,2.628663 -0.522724,0.135431 -0.679031,0.152839 -1.519934,0.169285 -0.651026,0.01273 -1.045609,-0.0027 -1.291943,-0.05047 z"
     id="path104"
     inkscape:connector-curvature="0" /><path
     style="fill:#cccccc;stroke-width:0.05066445"
     d="m 13.016611,26.791362 0.45598,-0.03152 -0.645972,-0.01591 c -0.355284,-0.0087 -0.663071,-0.02026 -0.68397,-0.02558 -0.131055,-0.03337 -0.453939,-0.219878 -0.509517,-0.294311 -0.03641,-0.04876 -0.09911,-0.08866 -0.139328,-0.08866 -0.04022,0 -0.07312,-0.02105 -0.07312,-0.04678 0,-0.02573 -0.05466,-0.111737 -0.121467,-0.191133 -0.06681,-0.07939 -0.16954,-0.236584 -0.228295,-0.349308 l -0.106827,-0.204953 -7e-6,-8.330866 -8e-6,-8.3308666 0.114307,-0.226689 c 0.06287,-0.1246788 0.137106,-0.2533896 0.164971,-0.2860237 0.02787,-0.032634 0.107412,-0.1301154 0.17677,-0.216625 0.06936,-0.08651 0.150555,-0.1572902 0.180438,-0.1572902 0.02988,0 0.10423,-0.046486 0.165216,-0.1033025 0.06099,-0.056816 0.111231,-0.085315 0.111658,-0.063331 4.25e-4,0.021985 0.01753,0.017051 0.038,-0.010963 0.140712,-0.1925477 0.181257,-0.1936397 7.834327,-0.2110009 4.640132,-0.010526 7.413462,0.00122 7.450009,0.03155 0.03202,0.026575 0.105828,0.044733 0.164015,0.040349 0.12432,-0.00936 0.522842,0.1606589 0.522842,0.2230627 0,0.023633 0.02054,0.04297 0.04565,0.04297 0.07164,0 0.512647,0.4646626 0.601061,0.6333057 0.04383,0.083596 0.09947,0.2431894 0.123643,0.3546512 0.02418,0.1114618 0.05393,3.7942693 0.06612,8.1840173 0.02132,7.678112 0.01857,7.993214 -0.07231,8.293387 -0.05196,0.171616 -0.08176,0.324741 -0.06623,0.340278 0.01554,0.01554 3.04e-4,0.02825 -0.03385,0.02825 -0.03415,0 -0.04801,0.0228 -0.03079,0.05067 0.01722,0.02786 0.0087,0.05066 -0.01893,0.05066 -0.02763,0 -0.06381,0.04275 -0.08039,0.09501 -0.05968,0.188049 -0.546215,0.614331 -0.819933,0.718399 -0.08371,0.03183 -1.08511,0.05517 -2.622618,0.06114 l -2.487197,0.0097 2.279901,0.02733 c 1.253945,0.01503 -0.980357,0.02837 -4.965117,0.02964 -3.984759,0.0013 -7.039825,-0.01187 -6.789036,-0.02921 z"
     id="path106"
     inkscape:connector-curvature="0" /><path
     style="fill:#ffffff;stroke-width:0.05066445"
     d="M 2.0179121,60.914939 C 1.0543513,60.7045 0.25452871,59.883599 0.07261321,58.918375 0.00407128,58.5547 0.00698271,57.313761 0.07716749,56.977202 0.1743876,56.511003 0.41387951,56.079109 0.7769635,55.715211 1.3630263,55.127838 1.8374617,54.960797 2.9196973,54.960797 H 3.6183551 L 3.6190207,29.66657 C 3.6196646,5.1958731 3.6227578,4.3574606 3.7140255,3.9152635 4.0921897,2.0830379 5.4187432,0.67593168 7.2375449,0.1777837 L 7.646179,0.06586379 h 12.184801 12.1848 l 0.399998,0.11585585 c 1.686324,0.48842935 2.942437,1.74514806 3.435388,3.43704576 l 0.116231,0.3989256 0.01365,8.351445 0.01365,8.351444 0.392787,0.438838 c 1.746935,1.95175 3.160049,4.512834 3.932172,7.126545 0.508195,1.72029 0.575907,2.524329 0.637871,7.574336 0.05653,4.60715 0.118164,5.949022 0.357952,7.793128 0.438332,3.371034 1.491777,5.537928 3.081685,6.338901 0.96734,0.487333 2.370796,0.642633 3.30761,0.366005 1.517912,-0.448218 2.742762,-1.830784 3.554537,-4.012232 0.54754,-1.471393 0.906503,-3.576841 0.822684,-4.82537 -0.06089,-0.907074 -0.211256,-1.315799 -0.99008,-2.691339 -0.777366,-1.372963 -1.255936,-2.537257 -1.622849,-3.94816 -0.33075,-1.271851 -0.417299,-1.861733 -0.421301,-2.871431 -0.0031,-0.790491 0.01937,-1.040448 0.207551,-2.305233 0.288085,-1.936258 0.334407,-2.654674 0.300542,-4.661129 -0.04663,-2.762515 -0.301896,-5.159718 -0.717547,-6.738373 C 48.113074,15.550582 46.717437,12.965808 44.558276,10.378269 43.50475,9.115726 41.815932,7.4939442 40.5287,6.5086468 39.755417,5.9167452 39.64078,5.8048948 39.64078,5.642307 c 0,-0.1288022 0.209103,-0.5797721 1.287673,-2.7771182 0.439426,-0.8952335 0.568436,-1.1161093 0.688021,-1.1779485 0.08095,-0.041861 0.184851,-0.076111 0.230892,-0.076111 0.22772,0 2.51911,1.1147466 3.77207,1.8350882 4.140089,2.3801861 7.723723,5.741393 9.838715,9.2280495 0.443274,0.730753 0.496456,0.950586 0.281259,1.162561 -0.0627,0.06176 -0.677744,0.431206 -1.366775,0.820994 -0.929652,0.525913 -1.245641,0.728308 -1.225112,0.784703 0.271759,0.746544 0.82272,2.833991 1.05642,4.002492 0.593914,2.969607 0.658354,4.708756 0.30506,8.232973 -0.234191,2.336128 -0.221261,3.607671 0.05316,5.227568 0.229454,1.354474 0.726948,3.094132 1.402782,4.905322 0.536921,1.438923 0.717297,2.072119 0.910648,3.196782 0.09489,0.551958 0.112804,0.85088 0.115074,1.920328 0.0027,1.290084 -0.03168,1.691006 -0.230513,2.685216 -0.427867,2.139404 -1.460829,4.356223 -2.820379,6.052766 -1.018725,1.271231 -2.463452,2.427192 -3.836783,3.069895 -2.790091,1.30573 -5.784177,1.041246 -8.447471,-0.746211 -2.384492,-1.600338 -4.190926,-4.350705 -5.310036,-8.084733 -0.139952,-0.466964 -0.263328,-0.871825 -0.274168,-0.89969 -0.01084,-0.02787 -0.02151,2.200737 -0.02371,4.95245 l -0.004,5.003114 h 0.656144 c 0.760544,0 1.075584,0.05456 1.497095,0.259266 0.626777,0.304397 1.090993,0.850904 1.305748,1.53722 0.09695,0.309843 0.111488,0.470009 0.110535,1.218049 -9.48e-4,0.743151 -0.01635,0.909944 -0.112254,1.215947 -0.240231,0.766477 -0.812839,1.353091 -1.623132,1.662833 l -0.28887,0.110423 -17.631229,0.0089 c -14.5064695,0.0073 -17.6859044,-0.003 -17.9397289,-0.05849 z M 37.794743,59.86652 c 0.306586,-0.161807 0.601311,-0.474574 0.749794,-0.795701 0.09718,-0.210161 0.108287,-0.32257 0.108287,-1.095487 0,-0.772916 -0.01111,-0.885326 -0.108287,-1.095487 -0.148483,-0.321126 -0.443208,-0.633893 -0.749794,-0.7957 L 37.538206,55.948754 H 19.805647 2.0730893 l -0.2715007,0.150377 c -0.3382022,0.187327 -0.58394,0.469695 -0.7160508,0.822796 -0.085042,0.227296 -0.10173419,0.394965 -0.10173419,1.021922 0,0.495392 0.0239813,0.829697 0.0706396,0.98473 0.1357868,0.451187 0.5633688,0.886086 1.008166,1.025418 0.1748907,0.05478 3.3770352,0.06507 17.8443668,0.05734 l 17.63123,-0.0094 z M 7.1142023,29.580732 V 4.2006671 L 7.2364769,4.0585146 7.358751,3.9163621 H 19.73793 c 6.808549,0 12.443379,0.017911 12.521845,0.039802 0.31114,0.086803 0.287982,-1.979515 0.287982,25.6961119 v 25.308521 h 1.267009 1.267009 L 35.068711,29.615905 35.055647,4.2710133 34.943249,3.8765035 C 34.546214,2.4829357 33.485896,1.4492923 32.066445,1.0720726 31.725477,0.98146016 31.253414,0.97782392 19.83098,0.97782392 H 7.9501657 L 7.5195179,1.0909048 C 7.2826616,1.1530994 6.8975069,1.3001238 6.6636185,1.4176258 5.9049523,1.7987687 5.1479114,2.6321868 4.835487,3.4301965 4.5640208,4.1235888 4.5809797,2.3742859 4.5809797,29.682548 V 54.960797 H 5.847591 7.1142023 Z M 31.585133,29.907226 V 4.8536545 H 19.805647 8.0261624 V 29.907226 54.960797 H 19.805647 31.585133 Z m 16.364617,24.57307 c 3.355482,-0.739656 6.263667,-3.720727 7.538217,-7.72714 0.423656,-1.331719 0.592334,-2.584059 0.552744,-4.10382 -0.04296,-1.649151 -0.22805,-2.498823 -0.987789,-4.534469 -0.841744,-2.255365 -1.373696,-4.292734 -1.587393,-6.079734 -0.112273,-0.938833 -0.08096,-2.778585 0.07333,-4.308979 0.330733,-3.280448 0.312058,-4.663251 -0.09611,-7.115855 -0.251443,-1.510864 -0.763341,-3.557994 -1.23444,-4.936622 -0.08511,-0.24905 -0.154734,-0.491064 -0.154734,-0.53781 0,-0.186945 0.254553,-0.374033 1.381934,-1.015681 0.647142,-0.368318 1.204638,-0.691241 1.238887,-0.717606 0.07861,-0.06052 0.05424,-0.108466 -0.40533,-0.797264 C 52.265582,9.6025106 49.121017,6.6798486 45.616523,4.5633586 44.595671,3.9468292 42.777764,2.9975377 42.182941,2.7703783 c -0.113038,-0.043168 -0.143792,0.00834 -0.772633,1.2940314 -0.360201,0.7364441 -0.653466,1.3577906 -0.651701,1.38077 0.0018,0.022979 0.246855,0.2280797 0.544643,0.4557789 1.219601,0.9325487 2.972335,2.6210287 4.01636,3.8691236 2.421837,2.8952188 3.963684,5.9142438 4.628459,9.0627828 0.306234,1.450402 0.530822,3.895961 0.570347,6.210574 0.03667,2.147512 -0.01824,2.902271 -0.388889,5.345099 -0.277023,1.825779 -0.136264,3.138406 0.56189,5.239824 0.336184,1.011888 0.666217,1.732903 1.355943,2.962284 0.549314,0.979113 0.720332,1.364469 0.859902,1.937612 0.328868,1.35054 0.06375,3.788365 -0.635656,5.844915 -0.457886,1.346373 -1.148331,2.554301 -1.929758,3.376087 -0.562136,0.591169 -0.971758,0.900608 -1.606799,1.213818 -1.318507,0.650309 -2.772219,0.663821 -4.38782,0.04078 -1.956695,-0.754583 -3.274972,-2.903295 -3.841163,-6.260866 -0.345639,-2.049673 -0.438577,-3.699525 -0.484678,-8.604039 -0.0522,-5.553371 -0.15538,-6.457131 -0.997788,-8.739617 -0.266239,-0.721371 -0.902397,-2.079884 -1.293005,-2.761213 -0.48977,-0.854293 -1.587804,-2.406153 -1.702711,-2.406454 -0.06729,-1.52e-4 -0.0091,16.179685 0.06088,16.921819 0.277194,2.940647 0.683241,4.994492 1.423725,7.201408 0.793903,2.366125 1.830069,4.179954 3.189945,5.584061 1.382129,1.42708 2.932269,2.280619 4.71409,2.595666 0.515757,0.09119 2.019353,0.05895 2.533222,-0.05433 z"
     id="path108"
     inkscape:connector-curvature="0" /><path
     style="fill:#ffffff;stroke-width:0.05066445"
     d="m 12.05911,27.723895 c -0.925425,-0.22392 -1.664838,-0.894098 -2.001387,-1.813991 L 9.9260794,25.550083 V 17.215781 8.8814784 L 10.043201,8.5425108 c 0.325701,-0.9426287 1.20289,-1.7163436 2.115269,-1.8657507 0.185216,-0.03033 3.163131,-0.049145 7.748506,-0.048955 8.189291,3.384e-4 7.671221,-0.019203 8.33392,0.31436 0.430287,0.2165811 0.935176,0.723366 1.152092,1.1564178 0.337643,0.6740738 0.317663,0.1067209 0.316556,8.9885151 -6.23e-4,5.007884 -0.01988,8.191903 -0.05089,8.412321 -0.148764,1.057678 -1.124092,2.055807 -2.199317,2.250732 -0.206299,0.0374 -2.622617,0.05318 -7.700997,0.05028 -6.226696,-0.0036 -7.44777,-0.01569 -7.699234,-0.07653 z m 15.717116,-1.080834 c 0.573407,-0.310894 0.884948,-0.778083 0.975426,-1.462753 0.03365,-0.254638 0.04636,-3.127138 0.03658,-8.268514 L 28.773255,9.0334718 28.651028,8.729485 C 28.483838,8.3136738 28.023784,7.8536201 27.607973,7.6864301 L 27.303986,7.5642027 H 19.83098 c -6.993245,0 -7.48927,0.0057 -7.726329,0.088855 -0.53358,0.1871585 -1.005284,0.6801196 -1.16481,1.2173024 -0.111259,0.3746482 -0.116175,16.3036979 -0.0051,16.6726189 0.161415,0.53634 0.549262,0.957698 1.08492,1.178661 l 0.287694,0.118676 7.574335,-0.01181 7.574336,-0.01181 z"
     id="path110"
     inkscape:connector-curvature="0" /></svg>