<?xml version="1.0" ?><svg style="enable-background:new 0 0 57.05 61;" version="1.1" viewBox="0 0 57.05 61" xml:space="preserve" xmlns="http://www.w3.org/2000/svg" xmlns:xlink="http://www.w3.org/1999/xlink"><style type="text/css">
	.st0{fill:#FFFFFF;stroke:#000000;stroke-miterlimit:10;}
	.st1{fill:#FFFFFF;}
	.st2{fill:none;stroke:#000000;stroke-miterlimit:10;}
	.st3{fill:none;stroke:#000000;stroke-linecap:round;stroke-miterlimit:10;}
	.st4{fill:none;stroke:#000000;stroke-linejoin:round;stroke-miterlimit:10;}
	.st5{fill:none;stroke:#000000;stroke-linecap:round;stroke-linejoin:round;stroke-miterlimit:10;}
</style><g id="Layer_2"/><g id="Layer_1"/><g id="Layer_3"><g><path d="M56.19,38.35c-2.17-5.61-1.94-7.88-1.65-10.75c0.09-0.85,0.18-1.74,0.21-2.78c0.14-3.93-1.16-8.13-1.6-9.43l2.5-1.43    c0.23-0.13,0.32-0.42,0.2-0.66c-0.15-0.3-3.79-7.4-13.81-11.67c-0.25-0.1-0.53,0-0.65,0.24l-1.72,3.51    c-0.11,0.22-0.04,0.5,0.17,0.64c0.08,0.06,8.4,5.7,9.39,14.49c0.61,5.42,0.25,7.68-0.01,9.33c-0.24,1.52-0.42,2.62,0.22,5.06    c0.53,2.02,1.19,3.18,1.73,4.12c0.46,0.79,0.78,1.37,0.87,2.18c0.21,1.98-0.57,6.47-2.91,8.38c-1.14,0.93-2.53,1.15-4.13,0.64    c-3.96-1.25-3.98-8.4-4.01-14.14c-0.01-2.83-0.02-5.49-0.48-7.22c-1.24-4.68-3.8-7.44-4.48-8.12v-5.49V4.85    c0-2.67-2.18-4.85-4.85-4.85H8.44C5.77,0,3.59,2.18,3.59,4.85v50.08H2.54c-1.4,0-2.54,1.14-2.54,2.54v0.99    C0,59.86,1.14,61,2.54,61H37.1c1.4,0,2.54-1.14,2.54-2.54v-0.99c0-1.4-1.14-2.54-2.54-2.54h-1.05v-7.64v-2.31    c1.08,4.12,3.3,8.63,7.92,10.19c3.18,1.07,6.66,0.05,9.33-2.73C56.25,49.35,58.29,43.79,56.19,38.35z M4.59,4.85    C4.59,2.73,6.32,1,8.44,1h22.75c2.12,0,3.85,1.73,3.85,3.85v10.41v5.71v16.37v0c0,0,0,0.01,0,0.01v9.94v7.64h-2.47V4.38    c0-0.28-0.22-0.5-0.5-0.5H7.57c-0.28,0-0.5,0.22-0.5,0.5v50.55H4.59V4.85z M31.57,4.88v50.05H8.07V4.88H31.57z M37.1,55.94    c0.85,0,1.54,0.69,1.54,1.54v0.99c0,0.85-0.69,1.54-1.54,1.54H2.54C1.69,60,1,59.31,1,58.46v-0.99c0-0.85,0.69-1.54,1.54-1.54    h1.55h3.47h24.51h3.47H37.1z M52.56,51.75c-2.42,2.53-5.44,3.43-8.28,2.48c-8.13-2.74-8.24-16.24-8.24-16.88v-0.01    c0,0,0-0.01,0-0.01c0,0,0,0,0,0V22.24c0.99,1.19,2.62,3.53,3.51,6.88c0.42,1.6,0.44,4.21,0.45,6.96    c0.02,6.38,0.05,13.62,4.71,15.09c1.94,0.62,3.64,0.33,5.06-0.82c2.77-2.27,3.49-7.15,3.27-9.26c-0.11-1.02-0.52-1.74-1-2.57    c-0.51-0.88-1.13-1.98-1.63-3.87c-0.58-2.23-0.43-3.19-0.2-4.65c0.27-1.71,0.65-4.04,0.02-9.6c-0.94-8.28-7.79-13.73-9.47-14.95    l1.32-2.7c8.01,3.55,11.72,9.06,12.64,10.6l-2.43,1.39c-0.21,0.12-0.31,0.38-0.22,0.61c0.02,0.05,1.84,5.03,1.68,9.45    c-0.04,1.01-0.12,1.88-0.21,2.71c-0.29,2.88-0.54,5.38,1.71,11.21C57.2,43.74,55.31,48.88,52.56,51.75z"/><path d="M12.7,27.83h14.23c1.55,0,2.82-1.27,2.82-2.82V9.4c0-1.56-1.27-2.82-2.82-2.82H12.7c-1.55,0-2.82,1.27-2.82,2.82v15.62    C9.88,26.57,11.15,27.83,12.7,27.83z M10.88,9.4c0-1,0.82-1.82,1.82-1.82h14.23c1,0,1.82,0.82,1.82,1.82v15.62    c0,1-0.82,1.82-1.82,1.82H12.7c-1,0-1.82-0.82-1.82-1.82V9.4z"/></g></g></svg>